<svg width="198" height="135" viewBox="0 0 198 135" fill="none" xmlns="http://www.w3.org/2000/svg">
<path d="M183.33 41.575C183.73 40.225 184.505 39.325 185.655 38.875C186.855 38.425 188.03 38.325 189.18 38.575C190.33 38.825 191.28 39.375 192.03 40.225C192.78 41.075 192.93 42.125 192.48 43.375C190.28 49.725 187.405 54.65 183.855 58.15C180.355 61.6 176.555 63.325 172.455 63.325C170.905 63.325 169.43 63.05 168.03 62.5C166.68 62 165.48 61.3 164.43 60.4C163.38 59.45 162.555 58.325 161.955 57.025C161.355 55.675 161.055 54.175 161.055 52.525C161.055 51.075 161.355 49.475 161.955 47.725L165.255 38.575C165.555 37.675 165.58 36.95 165.33 36.4C165.13 35.8 164.78 35.325 164.28 34.975C163.78 34.575 163.18 34.275 162.48 34.075C161.83 33.875 161.205 33.675 160.605 33.475L156.405 44.725C155.955 46.075 155.13 47.05 153.93 47.65C152.78 48.25 151.63 48.475 150.48 48.325C149.38 48.125 148.455 47.575 147.705 46.675C147.005 45.775 146.905 44.525 147.405 42.925L152.88 28.15C151.63 26.6 151.005 24.825 151.005 22.825C151.005 22.275 151.055 21.675 151.155 21.025C151.305 20.375 151.505 19.775 151.755 19.225C152.155 17.875 152.905 16.775 154.005 15.925C155.155 15.075 156.505 14.65 158.055 14.65C159.055 14.65 160.005 14.9 160.905 15.4C161.805 15.85 162.555 16.475 163.155 17.275C163.755 18.025 164.155 18.9 164.355 19.9C164.605 20.85 164.555 21.85 164.205 22.9C165.255 23.2 166.53 23.65 168.03 24.25C169.53 24.8 170.98 25.525 172.38 26.425C173.78 27.325 174.955 28.425 175.905 29.725C176.905 30.975 177.405 32.5 177.405 34.3C177.405 34.95 177.33 35.625 177.18 36.325C177.08 36.975 176.905 37.675 176.655 38.425L172.23 50.725C172.03 51.275 171.93 51.825 171.93 52.375C171.93 52.925 172.055 53.4 172.305 53.8C172.555 54.15 172.955 54.325 173.505 54.325C174.305 54.325 175.13 54 175.98 53.35C176.83 52.7 177.68 51.825 178.53 50.725C179.38 49.575 180.205 48.225 181.005 46.675C181.855 45.125 182.63 43.425 183.33 41.575Z" fill="black"/>
<path d="M146.732 42.175C147.132 40.875 147.907 39.95 149.057 39.4C150.257 38.85 151.432 38.675 152.582 38.875C153.782 39.025 154.732 39.525 155.432 40.375C156.182 41.225 156.307 42.4 155.807 43.9C154.557 47.5 152.932 50.55 150.932 53.05C148.932 55.5 146.707 57.5 144.257 59.05C141.807 60.6 139.232 61.725 136.532 62.425C133.832 63.125 131.182 63.475 128.582 63.475C125.832 63.475 123.282 63.125 120.932 62.425C118.582 61.775 116.532 60.825 114.782 59.575C113.082 58.275 111.732 56.725 110.732 54.925C109.732 53.125 109.232 51.1 109.232 48.85C109.232 48 109.307 47.125 109.457 46.225C109.657 45.325 109.907 44.425 110.207 43.525L114.632 30.7C115.282 28.85 116.157 27.225 117.257 25.825C118.357 24.375 119.607 23.175 121.007 22.225C122.407 21.225 123.907 20.5 125.507 20.05C127.157 19.55 128.807 19.3 130.457 19.3C132.557 19.3 134.482 19.625 136.232 20.275C137.982 20.925 139.457 21.825 140.657 22.975C141.907 24.075 142.857 25.4 143.507 26.95C144.207 28.45 144.557 30.1 144.557 31.9C144.557 33.15 144.357 34.525 143.957 36.025C143.457 37.725 142.707 39.25 141.707 40.6C140.757 41.95 139.632 43.1 138.332 44.05C137.032 45 135.582 45.75 133.982 46.3C132.432 46.8 130.807 47.05 129.107 47.05C127.607 47.05 126.182 46.85 124.832 46.45C123.532 46.05 122.332 45.5 121.232 44.8L120.632 46.225C120.382 46.875 120.257 47.575 120.257 48.325C120.257 50.075 121.057 51.55 122.657 52.75C124.257 53.95 126.432 54.55 129.182 54.55C130.782 54.55 132.432 54.325 134.132 53.875C135.882 53.375 137.532 52.625 139.082 51.625C140.682 50.625 142.132 49.35 143.432 47.8C144.782 46.25 145.882 44.375 146.732 42.175ZM130.232 28.225C129.382 28.225 128.532 28.55 127.682 29.2C126.882 29.8 126.257 30.675 125.807 31.825L124.232 36.325C124.932 36.725 125.732 37 126.632 37.15C127.582 37.3 128.507 37.3 129.407 37.15C130.307 37 131.107 36.675 131.807 36.175C132.557 35.625 133.082 34.85 133.382 33.85C133.582 33.3 133.682 32.7 133.682 32.05C133.682 31 133.357 30.1 132.707 29.35C132.107 28.6 131.282 28.225 130.232 28.225Z" fill="black"/>
<path d="M110.228 41.725C110.678 40.325 111.503 39.35 112.703 38.8C113.903 38.2 115.078 38.025 116.228 38.275C117.428 38.475 118.378 39.025 119.078 39.925C119.778 40.825 119.853 42.025 119.303 43.525C118.003 47.175 116.528 50.275 114.878 52.825C113.278 55.375 111.553 57.45 109.703 59.05C107.903 60.6 106.028 61.725 104.078 62.425C102.128 63.125 100.203 63.475 98.3028 63.475C96.7028 63.475 95.1778 63.225 93.7278 62.725C92.2778 62.275 90.9778 61.6 89.8278 60.7C88.7278 59.8 87.8528 58.7 87.2028 57.4C86.5528 56.05 86.2278 54.5 86.2278 52.75C86.2278 51.1 86.5528 49.45 87.2028 47.8L92.5278 32.875C92.6278 32.525 92.7028 32.2 92.7528 31.9C92.8528 31.55 92.9028 31.25 92.9028 31C92.9028 30.3 92.6778 29.75 92.2278 29.35C91.8278 28.9 91.2778 28.675 90.5778 28.675C89.5278 28.675 88.3778 29.125 87.1278 30.025C85.9278 30.925 84.8278 32.325 83.8278 34.225C83.1778 36.025 82.4778 37.975 81.7278 40.075C81.0278 42.125 80.3028 44.225 79.5528 46.375C78.8028 48.475 78.0528 50.575 77.3028 52.675C76.5528 54.725 75.8528 56.65 75.2028 58.45C74.8028 59.65 74.2028 60.625 73.4028 61.375C72.6028 62.125 71.7278 62.675 70.7778 63.025C69.8778 63.375 68.9528 63.5 68.0028 63.4C67.0528 63.35 66.2528 63.075 65.6028 62.575C64.9028 62.125 64.4028 61.475 64.1028 60.625C63.8028 59.725 63.8278 58.65 64.1778 57.4L76.7028 22.3C77.0028 21.25 77.6028 20.475 78.5028 19.975C79.4028 19.475 80.3528 19.225 81.3528 19.225C82.4028 19.175 83.3528 19.35 84.2028 19.75C85.1028 20.15 85.6778 20.7 85.9278 21.4C87.9278 20.25 90.3278 19.675 93.1278 19.675C94.6278 19.675 96.0528 19.925 97.4028 20.425C98.7528 20.925 99.9278 21.625 100.928 22.525C101.928 23.375 102.728 24.425 103.328 25.675C103.928 26.925 104.228 28.3 104.228 29.8C104.228 31 103.953 32.375 103.403 33.925L103.478 33.85L97.5528 50.575C97.3028 51.425 97.1778 52.05 97.1778 52.45C97.1778 53.8 97.8778 54.475 99.2778 54.475C101.028 54.475 102.878 53.475 104.828 51.475C106.778 49.475 108.578 46.225 110.228 41.725Z" fill="black"/>
<path d="M69.8235 41.725C70.2735 40.325 71.0985 39.35 72.2985 38.8C73.4985 38.2 74.6735 38.025 75.8235 38.275C77.0235 38.475 77.9735 39.025 78.6735 39.925C79.3735 40.825 79.4485 42.025 78.8985 43.525C77.5985 47.175 76.1235 50.275 74.4735 52.825C72.8735 55.375 71.1485 57.45 69.2985 59.05C67.4985 60.6 65.6235 61.725 63.6735 62.425C61.7235 63.125 59.7985 63.475 57.8985 63.475C56.2985 63.475 54.7735 63.225 53.3235 62.725C51.8735 62.275 50.5735 61.6 49.4235 60.7C48.3235 59.8 47.4485 58.7 46.7985 57.4C46.1485 56.05 45.8235 54.5 45.8235 52.75C45.8235 51.1 46.1485 49.45 46.7985 47.8L52.1235 32.875C52.2235 32.525 52.2985 32.2 52.3485 31.9C52.4485 31.55 52.4985 31.25 52.4985 31C52.4985 30.3 52.2735 29.75 51.8235 29.35C51.4235 28.9 50.8735 28.675 50.1735 28.675C49.1235 28.675 47.9735 29.125 46.7235 30.025C45.5235 30.925 44.4235 32.325 43.4235 34.225C42.7735 36.025 42.0735 37.975 41.3235 40.075C40.6235 42.125 39.8985 44.225 39.1485 46.375C38.3985 48.475 37.6485 50.575 36.8985 52.675C36.1485 54.725 35.4485 56.65 34.7985 58.45C34.3985 59.65 33.7985 60.625 32.9985 61.375C32.1985 62.125 31.3235 62.675 30.3735 63.025C29.4735 63.375 28.5485 63.5 27.5985 63.4C26.6485 63.35 25.8485 63.075 25.1985 62.575C24.4985 62.125 23.9985 61.475 23.6985 60.625C23.3985 59.725 23.4235 58.65 23.7735 57.4L36.2985 22.3C36.5985 21.25 37.1985 20.475 38.0985 19.975C38.9985 19.475 39.9485 19.225 40.9485 19.225C41.9985 19.175 42.9485 19.35 43.7985 19.75C44.6985 20.15 45.2735 20.7 45.5235 21.4C47.5235 20.25 49.9235 19.675 52.7235 19.675C54.2235 19.675 55.6485 19.925 56.9985 20.425C58.3485 20.925 59.5235 21.625 60.5235 22.525C61.5235 23.375 62.3235 24.425 62.9235 25.675C63.5235 26.925 63.8235 28.3 63.8235 29.8C63.8235 31 63.5485 32.375 62.9985 33.925L63.0735 33.85L57.1485 50.575C56.8985 51.425 56.7735 52.05 56.7735 52.45C56.7735 53.8 57.4735 54.475 58.8735 54.475C60.6235 54.475 62.4735 53.475 64.4235 51.475C66.3735 49.475 68.1735 46.225 69.8235 41.725Z" fill="black"/>
<path d="M26.421 12.4C24.721 12.4 23.271 11.8 22.071 10.6C20.871 9.4 20.271 7.92501 20.271 6.17501C20.271 4.475 20.871 3.05001 22.071 1.90001C23.271 0.700006 24.721 0.100006 26.421 0.100006C28.121 0.100006 29.571 0.700006 30.771 1.90001C31.971 3.05001 32.571 4.475 32.571 6.17501C32.571 7.92501 31.971 9.4 30.771 10.6C29.571 11.8 28.121 12.4 26.421 12.4ZM16.296 50.65C16.146 51.1 16.071 51.5 16.071 51.85C16.071 52.55 16.321 53.15 16.821 53.65C17.371 54.15 18.071 54.4 18.921 54.4C19.671 54.4 20.471 54.2 21.321 53.8C22.171 53.35 23.046 52.625 23.946 51.625C24.846 50.625 25.746 49.325 26.646 47.725C27.596 46.075 28.521 44.025 29.421 41.575C29.921 40.175 30.771 39.225 31.971 38.725C33.171 38.225 34.346 38.1 35.496 38.35C36.646 38.55 37.571 39.1 38.271 40C38.971 40.85 39.096 41.95 38.646 43.3C37.346 47.2 35.871 50.425 34.221 52.975C32.571 55.525 30.846 57.575 29.046 59.125C27.246 60.675 25.396 61.75 23.496 62.35C21.646 63 19.796 63.325 17.946 63.325C16.196 63.325 14.546 63.075 12.996 62.575C11.496 62.075 10.146 61.35 8.94604 60.4C7.79604 59.45 6.89604 58.3 6.24604 56.95C5.54604 55.55 5.19604 53.975 5.19604 52.225C5.19604 51.575 5.29604 50.8 5.49604 49.9C5.64604 49 5.84604 48.175 6.09604 47.425C6.69604 45.675 7.32104 43.825 7.97105 41.875C8.67104 39.925 9.37105 37.975 10.071 36.025C10.771 34.025 11.446 32.05 12.096 30.1C12.796 28.1 13.446 26.225 14.046 24.475C14.746 22.425 15.796 21 17.196 20.2C18.646 19.4 20.021 19.15 21.321 19.45C22.621 19.75 23.646 20.575 24.396 21.925C25.146 23.225 25.196 24.95 24.546 27.1L16.296 50.65Z" fill="black"/>
<path d="M132 75C132 95.9868 114.987 113 94 113C73.0132 113 56 95.9868 56 75C56 54.0132 73.0132 37 94 37C114.987 37 132 54.0132 132 75Z" fill="#FCDE5C"/>
<path d="M188.296 113.175C188.696 111.875 189.471 110.95 190.621 110.4C191.821 109.85 192.996 109.675 194.146 109.875C195.346 110.025 196.296 110.525 196.996 111.375C197.746 112.225 197.871 113.4 197.371 114.9C196.121 118.5 194.496 121.55 192.496 124.05C190.496 126.5 188.271 128.5 185.821 130.05C183.371 131.6 180.796 132.725 178.096 133.425C175.396 134.125 172.746 134.475 170.146 134.475C167.396 134.475 164.846 134.125 162.496 133.425C160.146 132.775 158.096 131.825 156.346 130.575C154.646 129.275 153.296 127.725 152.296 125.925C151.296 124.125 150.796 122.1 150.796 119.85C150.796 119 150.871 118.125 151.021 117.225C151.221 116.325 151.471 115.425 151.771 114.525L156.196 101.7C156.846 99.85 157.721 98.225 158.821 96.825C159.921 95.375 161.171 94.175 162.571 93.225C163.971 92.225 165.471 91.5 167.071 91.05C168.721 90.55 170.371 90.3 172.021 90.3C174.121 90.3 176.046 90.625 177.796 91.275C179.546 91.925 181.021 92.825 182.221 93.975C183.471 95.075 184.421 96.4 185.071 97.95C185.771 99.45 186.121 101.1 186.121 102.9C186.121 104.15 185.921 105.525 185.521 107.025C185.021 108.725 184.271 110.25 183.271 111.6C182.321 112.95 181.196 114.1 179.896 115.05C178.596 116 177.146 116.75 175.546 117.3C173.996 117.8 172.371 118.05 170.671 118.05C169.171 118.05 167.746 117.85 166.396 117.45C165.096 117.05 163.896 116.5 162.796 115.8L162.196 117.225C161.946 117.875 161.821 118.575 161.821 119.325C161.821 121.075 162.621 122.55 164.221 123.75C165.821 124.95 167.996 125.55 170.746 125.55C172.346 125.55 173.996 125.325 175.696 124.875C177.446 124.375 179.096 123.625 180.646 122.625C182.246 121.625 183.696 120.35 184.996 118.8C186.346 117.25 187.446 115.375 188.296 113.175ZM171.796 99.225C170.946 99.225 170.096 99.55 169.246 100.2C168.446 100.8 167.821 101.675 167.371 102.825L165.796 107.325C166.496 107.725 167.296 108 168.196 108.15C169.146 108.3 170.071 108.3 170.971 108.15C171.871 108 172.671 107.675 173.371 107.175C174.121 106.625 174.646 105.85 174.946 104.85C175.146 104.3 175.246 103.7 175.246 103.05C175.246 102 174.921 101.1 174.271 100.35C173.671 99.6 172.846 99.225 171.796 99.225Z" fill="black"/>
<path d="M138.673 122.1C138.573 122.35 138.498 122.6 138.448 122.85C138.398 123.05 138.373 123.225 138.373 123.375C138.373 123.925 138.573 124.4 138.973 124.8C139.373 125.2 139.948 125.4 140.698 125.4C142.448 125.4 144.323 124.4 146.323 122.4C148.373 120.4 150.248 117.125 151.948 112.575C152.598 110.875 153.523 109.75 154.723 109.2C155.923 108.65 157.073 108.525 158.173 108.825C159.273 109.125 160.148 109.775 160.798 110.775C161.448 111.775 161.548 112.95 161.098 114.3C159.798 118.2 158.273 121.45 156.523 124.05C154.823 126.6 153.023 128.65 151.123 130.2C149.273 131.7 147.373 132.75 145.423 133.35C143.473 134 141.598 134.325 139.798 134.325C138.148 134.325 136.573 134.075 135.073 133.575C133.573 133.125 132.248 132.45 131.098 131.55C129.998 130.65 129.123 129.55 128.473 128.25C127.823 126.9 127.498 125.35 127.498 123.6C127.498 122.1 127.798 120.475 128.398 118.725L143.098 76.05C143.548 74.7 144.173 73.65 144.973 72.9C145.823 72.1 146.723 71.575 147.673 71.325C148.623 71.025 149.573 70.975 150.523 71.175C151.473 71.375 152.273 71.8 152.923 72.45C153.573 73.05 153.998 73.85 154.198 74.85C154.448 75.85 154.323 77.025 153.823 78.375L138.673 122.1Z" fill="black"/>
<path d="M130.154 112.125C130.604 110.775 131.404 109.875 132.554 109.425C133.754 108.975 134.904 108.9 136.004 109.2C137.104 109.5 138.004 110.125 138.704 111.075C139.404 111.975 139.504 113.1 139.004 114.45C137.804 117.85 136.254 120.8 134.354 123.3C132.454 125.8 130.304 127.875 127.904 129.525C125.554 131.175 123.029 132.4 120.329 133.2C117.629 134 114.904 134.4 112.154 134.4C109.404 134.4 106.879 134.025 104.579 133.275C102.329 132.525 100.379 131.5 98.7285 130.2C97.1285 128.9 95.8785 127.35 94.9785 125.55C94.0785 123.7 93.6285 121.7 93.6285 119.55C93.6285 117.85 93.9285 116.1 94.5285 114.3L98.8035 101.7C99.4535 99.75 100.329 98.05 101.429 96.6C102.579 95.15 103.829 93.975 105.179 93.075C106.579 92.125 108.054 91.425 109.604 90.975C111.204 90.525 112.804 90.3 114.404 90.3C116.454 90.3 118.304 90.75 119.954 91.65C121.654 92.55 123.004 93.775 124.004 95.325C125.054 96.875 125.679 98.65 125.879 100.65C126.129 102.65 125.854 104.775 125.054 107.025C124.204 109.225 123.029 110.65 121.529 111.3C120.079 111.9 118.704 111.975 117.404 111.525C116.154 111.075 115.204 110.25 114.554 109.05C113.904 107.8 113.954 106.425 114.704 104.925C115.404 103.625 115.654 102.5 115.454 101.55C115.254 100.6 114.579 100.075 113.429 99.975C112.779 99.925 112.129 100.175 111.479 100.725C110.829 101.225 110.329 101.95 109.979 102.9V102.825L105.329 115.875C105.029 116.875 104.879 117.775 104.879 118.575C104.879 120.475 105.629 122.075 107.129 123.375C108.679 124.675 110.754 125.325 113.354 125.325C114.754 125.325 116.229 125.1 117.779 124.65C119.379 124.15 120.929 123.375 122.429 122.325C123.929 121.275 125.354 119.925 126.704 118.275C128.054 116.575 129.204 114.525 130.154 112.125Z" fill="black"/>
<path d="M95.4293 112.575C95.8293 111.225 96.6043 110.325 97.7543 109.875C98.9543 109.425 100.129 109.325 101.279 109.575C102.429 109.825 103.379 110.375 104.129 111.225C104.879 112.075 105.029 113.125 104.579 114.375C102.379 120.725 99.5043 125.65 95.9543 129.15C92.4543 132.6 88.6543 134.325 84.5543 134.325C83.0043 134.325 81.5293 134.05 80.1293 133.5C78.7793 133 77.5793 132.3 76.5293 131.4C75.4793 130.45 74.6543 129.325 74.0543 128.025C73.4543 126.675 73.1543 125.175 73.1543 123.525C73.1543 122.075 73.4543 120.475 74.0543 118.725L77.3543 109.575C77.6543 108.675 77.6793 107.95 77.4293 107.4C77.2293 106.8 76.8793 106.325 76.3793 105.975C75.8793 105.575 75.2793 105.275 74.5793 105.075C73.9293 104.875 73.3043 104.675 72.7043 104.475L68.5043 115.725C68.0543 117.075 67.2293 118.05 66.0293 118.65C64.8793 119.25 63.7293 119.475 62.5793 119.325C61.4793 119.125 60.5543 118.575 59.8043 117.675C59.1043 116.775 59.0043 115.525 59.5043 113.925L64.9793 99.15C63.7293 97.6 63.1043 95.825 63.1043 93.825C63.1043 93.275 63.1543 92.675 63.2543 92.025C63.4043 91.375 63.6043 90.775 63.8543 90.225C64.2543 88.875 65.0043 87.775 66.1043 86.925C67.2543 86.075 68.6043 85.65 70.1543 85.65C71.1543 85.65 72.1043 85.9 73.0043 86.4C73.9043 86.85 74.6543 87.475 75.2543 88.275C75.8543 89.025 76.2543 89.9 76.4543 90.9C76.7043 91.85 76.6543 92.85 76.3043 93.9C77.3543 94.2 78.6293 94.65 80.1293 95.25C81.6293 95.8 83.0793 96.525 84.4793 97.425C85.8793 98.325 87.0543 99.425 88.0043 100.725C89.0043 101.975 89.5043 103.5 89.5043 105.3C89.5043 105.95 89.4293 106.625 89.2793 107.325C89.1793 107.975 89.0043 108.675 88.7543 109.425L84.3293 121.725C84.1293 122.275 84.0293 122.825 84.0293 123.375C84.0293 123.925 84.1543 124.4 84.4043 124.8C84.6543 125.15 85.0543 125.325 85.6043 125.325C86.4043 125.325 87.2293 125 88.0793 124.35C88.9293 123.7 89.7793 122.825 90.6293 121.725C91.4793 120.575 92.3043 119.225 93.1043 117.675C93.9543 116.125 94.7293 114.425 95.4293 112.575Z" fill="black"/>
<path d="M55.8518 83.4C54.1518 83.4 52.7018 82.8 51.5018 81.6C50.3018 80.4 49.7018 78.925 49.7018 77.175C49.7018 75.475 50.3018 74.05 51.5018 72.9C52.7018 71.7 54.1518 71.1 55.8518 71.1C57.5518 71.1 59.0018 71.7 60.2018 72.9C61.4018 74.05 62.0018 75.475 62.0018 77.175C62.0018 78.925 61.4018 80.4 60.2018 81.6C59.0018 82.8 57.5518 83.4 55.8518 83.4ZM45.7268 121.65C45.5768 122.1 45.5018 122.5 45.5018 122.85C45.5018 123.55 45.7518 124.15 46.2518 124.65C46.8018 125.15 47.5018 125.4 48.3518 125.4C49.1018 125.4 49.9018 125.2 50.7518 124.8C51.6018 124.35 52.4768 123.625 53.3768 122.625C54.2768 121.625 55.1768 120.325 56.0768 118.725C57.0268 117.075 57.9518 115.025 58.8518 112.575C59.3518 111.175 60.2018 110.225 61.4018 109.725C62.6018 109.225 63.7768 109.1 64.9268 109.35C66.0768 109.55 67.0018 110.1 67.7018 111C68.4018 111.85 68.5268 112.95 68.0768 114.3C66.7768 118.2 65.3018 121.425 63.6518 123.975C62.0018 126.525 60.2768 128.575 58.4768 130.125C56.6768 131.675 54.8268 132.75 52.9268 133.35C51.0768 134 49.2268 134.325 47.3768 134.325C45.6268 134.325 43.9768 134.075 42.4268 133.575C40.9268 133.075 39.5768 132.35 38.3768 131.4C37.2268 130.45 36.3268 129.3 35.6768 127.95C34.9768 126.55 34.6268 124.975 34.6268 123.225C34.6268 122.575 34.7268 121.8 34.9268 120.9C35.0768 120 35.2768 119.175 35.5268 118.425C36.1268 116.675 36.7518 114.825 37.4018 112.875C38.1018 110.925 38.8018 108.975 39.5018 107.025C40.2018 105.025 40.8768 103.05 41.5268 101.1C42.2268 99.1 42.8768 97.225 43.4768 95.475C44.1768 93.425 45.2268 92 46.6268 91.2C48.0768 90.4 49.4518 90.15 50.7518 90.45C52.0518 90.75 53.0768 91.575 53.8268 92.925C54.5768 94.225 54.6268 95.95 53.9768 98.1L45.7268 121.65Z" fill="black"/>
<path d="M37.4319 112.125C37.8819 110.775 38.6819 109.875 39.8319 109.425C41.0319 108.975 42.1819 108.9 43.2819 109.2C44.3819 109.5 45.2819 110.125 45.9819 111.075C46.6819 111.975 46.7819 113.1 46.2819 114.45C45.0819 117.85 43.5319 120.8 41.6319 123.3C39.7319 125.8 37.5819 127.875 35.1819 129.525C32.8319 131.175 30.3069 132.4 27.6069 133.2C24.9069 134 22.1819 134.4 19.4319 134.4C16.6819 134.4 14.1569 134.025 11.8569 133.275C9.60686 132.525 7.65686 131.5 6.00686 130.2C4.40686 128.9 3.15686 127.35 2.25686 125.55C1.35686 123.7 0.90686 121.7 0.90686 119.55C0.90686 117.85 1.20686 116.1 1.80686 114.3L6.08186 101.7C6.73186 99.75 7.60686 98.05 8.70686 96.6C9.85686 95.15 11.1069 93.975 12.4569 93.075C13.8569 92.125 15.3319 91.425 16.8819 90.975C18.4819 90.525 20.0819 90.3 21.6819 90.3C23.7319 90.3 25.5819 90.75 27.2319 91.65C28.9319 92.55 30.2819 93.775 31.2819 95.325C32.3319 96.875 32.9569 98.65 33.1569 100.65C33.4069 102.65 33.1319 104.775 32.3319 107.025C31.4819 109.225 30.3069 110.65 28.8069 111.3C27.3569 111.9 25.9819 111.975 24.6819 111.525C23.4319 111.075 22.4819 110.25 21.8319 109.05C21.1819 107.8 21.2319 106.425 21.9819 104.925C22.6819 103.625 22.9319 102.5 22.7319 101.55C22.5319 100.6 21.8569 100.075 20.7069 99.975C20.0569 99.925 19.4069 100.175 18.7569 100.725C18.1069 101.225 17.6069 101.95 17.2569 102.9V102.825L12.6069 115.875C12.3069 116.875 12.1569 117.775 12.1569 118.575C12.1569 120.475 12.9069 122.075 14.4069 123.375C15.9569 124.675 18.0319 125.325 20.6319 125.325C22.0319 125.325 23.5069 125.1 25.0569 124.65C26.6569 124.15 28.2069 123.375 29.7069 122.325C31.2069 121.275 32.6319 119.925 33.9819 118.275C35.3319 116.575 36.4819 114.525 37.4319 112.125Z" fill="black"/>
</svg>
